<svg version="1.1" viewBox="0 0 96 96" xmlns="http://www.w3.org/2000/svg" xmlns:xlink="http://www.w3.org/1999/xlink" id="Icons_Headphones" overflow="hidden"><path d=" M 48 14 C 27 14 10 31 10 52 L 10 70 C 10 71.7 11.3 73 13 73 C 14.7 73 16 71.7 16 70 L 16 69 L 20 69 L 20 78 C 20 80.2 21.8 82 24 82 L 30 82 C 32.2 82 34 80.2 34 78 L 34 56 C 34 53.8 32.2 52 30 52 L 24 52 C 21.8 52 20 53.8 20 56 L 20 65 L 16 65 L 16 52 C 16 34.4 30.4 20 48 20 C 65.6 20 80 34.4 80 52 L 80 65 L 76 65 L 76 56 C 76 53.8 74.2 52 72 52 L 66 52 C 63.8 52 62 53.8 62 56 L 62 78 C 62 80.2 63.8 82 66 82 L 72 82 C 74.2 82 76 80.2 76 78 L 76 69 L 80 69 L 80 70 C 80 71.7 81.3 73 83 73 C 84.7 73 86 71.7 86 70 L 86 52 C 86 31 69 14 48 14 Z" stroke="none" stroke-width="1" stroke-dasharray="" stroke-dashoffset="1" stroke-opacity="1" fill="#6001A7" fill-opacity="1"/></svg>