<svg version="1.1" viewBox="0 0 96 96" xmlns="http://www.w3.org/2000/svg" xmlns:xlink="http://www.w3.org/1999/xlink" id="Icons_ElectricGuitar" overflow="hidden"><circle cx="79.95" cy="12.12" r="1.5" stroke="#6001A7" stroke-width="1" stroke-dasharray="" stroke-dashoffset="1" stroke-opacity="1" fill="none" fill-opacity="1"/><circle cx="76.11" cy="13.96" r="1.5" stroke="#6001A7" stroke-width="1" stroke-dasharray="" stroke-dashoffset="1" stroke-opacity="1" fill="none" fill-opacity="1"/><circle cx="72.25" cy="15.78" r="1.5" stroke="#6001A7" stroke-width="1" stroke-dasharray="" stroke-dashoffset="1" stroke-opacity="1" fill="none" fill-opacity="1"/><path d=" M 84.62 12.76 L 69.73 19.49 L 68.31 23.73 L 46.45 44.58 C 43.55 44.38 40.71 39.7 45.36 35.83 C 48.75 33.02 40.36 29.4 34.98 41.17 C 29.6 52.94 27.63 46.48 17.46 53.71 C 7.29 60.94 15.83 71.63 19.9 75.71 C 21.6125 77.2675 23.4121 78.7265 25.29 80.08 C 30.29 83.27 36.91 85.17 41.9 78.15 C 47.62 70.1 44.71 65.85 48.42 63.48 C 52.13 61.11 55.79 61.17 57.42 57.78 C 59.05 54.39 56.75 52.26 54.9 53.51 C 51.45 55.87 48.77 53.8 47.98 52.34 L 71.85 27.26 L 76.09 25.85 C 80.36 16.93 84.24 19.35 86.18 16.64 C 88.12 13.93 84.62 12.76 84.62 12.76 Z M 54.14 56.19 C 54.23 56.51 53.04 58.19 50.85 59.04 C 49.3832 59.5845 47.9732 60.2711 46.64 61.09 C 44.17 62.67 43.76 64.86 43.32 67.17 C 42.741 70.4462 41.4582 73.5577 39.56 76.29 C 38.45 78 36.28 78.72 35.45 76.42 C 34.69 74.32 36.45 73.77 35.45 70.77 C 33.33 64.4 22.56 63.6 24.84 57.33 C 27.67 49.55 35.45 53.09 36.84 48.85 C 38.23 44.61 40.38 43.85 41.84 45.31 C 43.3 46.77 42.59 50.91 46.08 55.21 C 47.67 57.2 50.68 58.89 54.14 56.19 Z" stroke="#6001A7" stroke-width="1" stroke-dasharray="" stroke-dashoffset="1" stroke-opacity="1" fill="none" fill-opacity="1"/><rect x="34.32" y="54.96" rx="1.13" ry="1.13" width="10" height="4" stroke="#6001A7" stroke-width="1" stroke-dasharray="" stroke-dashoffset="1" stroke-opacity="1" fill="none" fill-opacity="1" transform="matrix(0.707107,0.707107,-0.707107,0.707107,51.8,-11.12)"/><rect x="29.37" y="59.91" rx="1.13" ry="1.13" width="10" height="4" stroke="#6001A7" stroke-width="1" stroke-dasharray="" stroke-dashoffset="1" stroke-opacity="1" fill="none" fill-opacity="1" transform="matrix(0.707107,0.707107,-0.707107,0.707107,53.85,-6.17)"/></svg>