<svg version="1.1" viewBox="0 0 96 96" xmlns="http://www.w3.org/2000/svg" xmlns:xlink="http://www.w3.org/1999/xlink" id="Icons_Bubbles" overflow="hidden"><path d=" M 53.25 29 C 44.9657 29 38.25 35.7157 38.25 44 C 38.25 44.33 38.25 44.65 38.25 45 C 45.6691 41.3892 54.6106 44.4764 58.2214 51.8955 C 59.078 53.6554 59.5803 55.5664 59.7 57.52 C 67.1669 53.9319 70.3114 44.9701 66.7233 37.5032 C 64.2331 32.3208 58.9996 29.0179 53.25 29 Z M 63.25 43 C 62.6977 43 62.25 42.5523 62.25 42 C 62.25 38.134 59.116 35 55.25 35 C 54.6977 35 54.25 34.5523 54.25 34 C 54.25 33.4477 54.6977 33 55.25 33 C 60.2206 33 64.25 37.0294 64.25 42 C 64.25 42.5523 63.8023 43 63.25 43 Z"/><path d=" M 44.75 45.5 C 37.5703 45.5 31.75 51.3203 31.75 58.5 C 31.75 65.6797 37.5703 71.5 44.75 71.5 C 51.9297 71.5 57.75 65.6797 57.75 58.5 C 57.75 51.3203 51.9297 45.5 44.75 45.5 Z M 52.75 57.5 C 52.1977 57.5 51.75 57.0523 51.75 56.5 C 51.75 53.7386 49.5114 51.5 46.75 51.5 C 46.1977 51.5 45.75 51.0523 45.75 50.5 C 45.75 49.9477 46.1977 49.5 46.75 49.5 C 50.616 49.5 53.75 52.634 53.75 56.5 C 53.75 57.0523 53.3023 57.5 52.75 57.5 Z"/><path d=" M 24.75 29.5 C 19.7794 29.5 15.75 33.5294 15.75 38.5 C 15.75 43.4706 19.7794 47.5 24.75 47.5 C 29.7206 47.5 33.75 43.4706 33.75 38.5 C 33.75 33.5294 29.7206 29.5 24.75 29.5 Z M 29.25 38 C 28.6977 38 28.25 37.5523 28.25 37 C 28.25 35.8954 27.3546 35 26.25 35 C 25.6977 35 25.25 34.5523 25.25 34 C 25.25 33.4477 25.6977 33 26.25 33 C 28.4591 33 30.25 34.7909 30.25 37 C 30.25 37.5523 29.8023 38 29.25 38 Z"/><path d=" M 73.75 67.5 C 68.2271 67.5 63.75 71.9771 63.75 77.5 C 63.75 83.0229 68.2271 87.5 73.75 87.5 C 79.2729 87.5 83.75 83.0229 83.75 77.5 C 83.75 71.9771 79.2729 67.5 73.75 67.5 Z M 78.75 77.17 C 78.1061 77.1646 77.5854 76.6439 77.58 76 C 77.58 74.7132 76.5368 73.67 75.25 73.67 C 74.6038 73.67 74.08 73.1462 74.08 72.5 C 74.08 71.8538 74.6038 71.33 75.25 71.33 C 77.8269 71.3355 79.9145 73.4231 79.92 76 C 79.9146 76.6439 79.3939 77.1646 78.75 77.17 Z"/><circle cx="71.75" cy="22.5" r="7.22"/><circle cx="20.75" cy="74.5" r="8"/><circle cx="34.25" cy="14.5" r="6.22"/><circle cx="17.25" cy="19.5" r="3"/><circle cx="77.25" cy="58.5" r="3"/><circle cx="37.25" cy="80.5" r="3"/></svg>